<?xml version="1.0" standalone="no"?>
<!DOCTYPE svg PUBLIC "-//W3C//DTD SVG 20010904//EN"
 "http://www.w3.org/TR/2001/REC-SVG-20010904/DTD/svg10.dtd">
<svg version="1.0" xmlns="http://www.w3.org/2000/svg"
 width="1280.000000pt" height="1280.000000pt" viewBox="0 0 1280.000000 1280.000000"
 preserveAspectRatio="xMidYMid meet">
<metadata>
Created by potrace 1.16, written by Peter Selinger 2001-2019
</metadata>
<g transform="translate(0.000000,1280.000000) scale(0.100000,-0.100000)"
fill="#000000" stroke="none">
<path d="M0 6400 l0 -6400 105 0 c58 0 111 5 118 10 51 43 345 206 354 196 3
-2 -33 -24 -78 -47 -46 -23 -127 -67 -179 -98 l-94 -56 1426 -3 c785 -1 2071
-1 2859 0 l1432 3 -114 44 c-170 65 -201 83 -531 302 -460 307 -526 360 -665
544 -100 133 -213 333 -272 483 -29 74 -61 239 -61 318 0 58 5 75 35 130 20
35 40 66 45 69 5 3 23 -24 40 -60 44 -92 70 -85 85 21 9 70 -8 213 -65 529
-46 258 -68 415 -57 415 2 0 62 -77 132 -170 90 -122 163 -206 253 -294 148
-144 428 -398 480 -437 21 -15 136 -70 257 -122 261 -113 387 -168 475 -209
36 -17 126 -47 200 -67 l135 -35 265 -1 c295 0 437 17 657 75 62 17 123 30
136 30 22 0 212 70 332 123 125 54 238 134 384 272 53 50 130 117 171 149 104
82 160 137 246 241 40 50 107 127 147 173 40 45 92 113 116 150 23 37 70 110
103 162 38 59 103 139 171 210 224 233 265 277 343 370 44 52 89 108 100 124
l21 29 -5 -310 c-7 -423 16 -638 94 -885 14 -43 38 -140 55 -215 64 -296 115
-429 176 -466 51 -30 101 -140 115 -254 20 -155 -14 -301 -127 -554 -104 -233
-303 -442 -704 -738 -46 -34 -125 -82 -175 -106 l-91 -45 1978 0 1977 0 0 178
0 179 -45 32 c-25 18 -45 34 -45 37 0 7 38 -15 45 -26 3 -5 15 -15 26 -20 19
-11 19 52 19 6205 l0 6215 -6400 0 -6400 0 0 -6400z m6129 6256 c-2 -2 -69 -5
-149 -8 -80 -3 -129 -2 -110 2 36 8 267 13 259 6z m351 -16 c40 -6 30 -7 -38
-3 -51 3 -107 9 -125 14 -38 9 79 1 163 -11z m-677 -7 c-13 -2 -33 -2 -45 0
-13 2 -3 4 22 4 25 0 35 -2 23 -4z m-95 -10 c-10 -2 -26 -2 -35 0 -10 3 -2 5
17 5 19 0 27 -2 18 -5z m895 0 c-13 -2 -33 -2 -45 0 -13 2 -3 4 22 4 25 0 35
-2 23 -4z m-970 -10 c-7 -2 -19 -2 -25 0 -7 3 -2 5 12 5 14 0 19 -2 13 -5z
m1045 0 c-10 -2 -26 -2 -35 0 -10 3 -2 5 17 5 19 0 27 -2 18 -5z m-1095 -10
c-7 -2 -19 -2 -25 0 -7 3 -2 5 12 5 14 0 19 -2 13 -5z m1160 0 c-7 -2 -21 -2
-30 0 -10 3 -4 5 12 5 17 0 24 -2 18 -5z m-1206 -9 c-3 -3 -12 -4 -19 -1 -8 3
-5 6 6 6 11 1 17 -2 13 -5z m1256 -1 c-7 -2 -19 -2 -25 0 -7 3 -2 5 12 5 14 0
19 -2 13 -5z m-1296 -9 c-3 -3 -12 -4 -19 -1 -8 3 -5 6 6 6 11 1 17 -2 13 -5z
m1346 -1 c-7 -2 -19 -2 -25 0 -7 3 -2 5 12 5 14 0 19 -2 13 -5z m-1386 -9 c-3
-3 -12 -4 -19 -1 -8 3 -5 6 6 6 11 1 17 -2 13 -5z m1430 0 c-3 -3 -12 -4 -19
-1 -8 3 -5 6 6 6 11 1 17 -2 13 -5z m-1470 -10 c-3 -3 -12 -4 -19 -1 -8 3 -5
6 6 6 11 1 17 -2 13 -5z m1510 0 c-3 -3 -12 -4 -19 -1 -8 3 -5 6 6 6 11 1 17
-2 13 -5z m-698 -19 c31 -8 164 -32 296 -55 281 -47 430 -83 636 -151 290 -96
533 -211 854 -403 493 -296 720 -476 827 -658 28 -49 112 -164 185 -256 114
-141 145 -189 208 -312 113 -225 151 -322 189 -485 33 -145 33 -152 21 -220
-11 -55 -11 -117 -4 -290 14 -311 6 -1256 -11 -1421 -16 -151 -18 -137 81
-644 33 -168 64 -330 70 -360 6 -30 21 -95 33 -145 13 -49 31 -137 40 -195 15
-96 15 -113 1 -195 -19 -107 -33 -165 -86 -347 -110 -377 -261 -657 -597
-1103 -178 -236 -245 -310 -355 -395 -24 -18 -37 0 -37 52 0 42 -67 264 -99
325 -80 159 -198 189 -736 187 -195 0 -355 -5 -390 -12 -59 -11 -60 -10 -83
16 -116 138 -151 175 -176 189 -67 35 -204 54 -437 60 -262 7 -280 3 -348 -66
l-46 -46 -75 1 c-63 1 -103 11 -260 64 -138 46 -193 69 -216 91 -62 60 -214
90 -279 56 -60 -31 -80 -63 -81 -130 -1 -35 -9 -75 -18 -92 -9 -16 -16 -41
-16 -55 0 -14 -15 -70 -33 -124 l-33 -99 -45 -12 c-24 -6 -82 -28 -129 -47
-115 -48 -538 -249 -595 -282 -55 -33 -82 -78 -66 -113 15 -33 13 -93 -4 -123
-19 -33 -19 -74 1 -111 28 -55 9 -53 -62 8 -208 180 -326 333 -499 647 -115
208 -162 312 -230 503 -124 347 -171 509 -200 683 -21 127 -42 222 -64 295
-14 43 -22 121 -31 280 -6 121 -15 283 -20 360 -5 77 -6 191 -3 252 7 122 9
108 -72 453 -73 309 -95 438 -115 690 -16 191 -14 550 4 710 8 74 17 176 21
225 4 50 18 129 31 177 57 199 214 592 353 882 57 118 74 145 107 168 59 41
125 113 294 323 439 544 743 831 1035 975 66 33 143 65 170 71 28 6 70 18 95
26 246 77 772 189 899 192 24 1 69 -6 100 -14z m-943 -21 c-38 -13 -71 -22
-73 -20 -5 5 107 44 127 44 8 0 -16 -10 -54 -24z m1711 20 c-3 -3 -12 -4 -19
-1 -8 3 -5 6 6 6 11 1 17 -2 13 -5z m40 -10 c-3 -3 -12 -4 -19 -1 -8 3 -5 6 6
6 11 1 17 -2 13 -5z m102 -30 c29 -8 51 -17 49 -19 -5 -5 -108 25 -108 31 0 6
1 6 59 -12z m-2002 -30 c-3 -3 -12 -4 -19 -1 -8 3 -5 6 6 6 11 1 17 -2 13 -5z
m-40 -10 c-3 -3 -12 -4 -19 -1 -8 3 -5 6 6 6 11 1 17 -2 13 -5z m2193 -16 c10
-6 7 -7 -10 -2 -14 3 -32 11 -40 16 -10 6 -7 7 10 2 14 -3 32 -11 40 -16z
m-2300 -18 c-8 -5 -19 -10 -25 -10 -5 0 -3 5 5 10 8 5 20 10 25 10 6 0 3 -5
-5 -10z m2514 -46 c66 -19 127 -40 136 -45 12 -8 11 -9 -5 -4 -11 4 -74 22
-139 41 -107 30 -145 44 -121 44 4 0 62 -16 129 -36z m-2575 22 c-10 -9 -109
-56 -109 -51 0 6 91 54 104 55 5 0 7 -2 5 -4z m2806 -102 c24 -11 25 -13 5 -8
-14 4 -38 13 -55 20 -24 11 -25 13 -5 8 14 -4 39 -13 55 -20z m-2975 12 c0 -2
-12 -11 -27 -20 l-28 -17 24 20 c23 21 31 25 31 17z m-84 -59 c-173 -130 -533
-454 -599 -539 -13 -18 -40 -41 -58 -51 l-34 -18 25 21 c14 12 108 102 210
199 183 176 232 222 300 279 47 39 174 132 180 131 3 0 -8 -10 -24 -22z m3184
-2 c14 -8 21 -14 15 -14 -5 0 -21 6 -35 14 -14 8 -20 14 -15 14 6 0 21 -6 35
-14z m70 -30 c14 -8 21 -14 15 -14 -5 0 -21 6 -35 14 -14 8 -20 14 -15 14 6 0
21 -6 35 -14z m70 -30 c14 -8 21 -14 15 -14 -5 0 -21 6 -35 14 -14 8 -20 14
-15 14 6 0 21 -6 35 -14z m75 -35 c3 -5 2 -10 -4 -10 -5 0 -13 5 -16 10 -3 6
-2 10 4 10 5 0 13 -4 16 -10z m268 -148 c20 -14 37 -27 37 -29 0 -3 -10 1 -22
9 -13 8 -60 37 -105 63 -46 26 -83 50 -83 52 0 6 120 -61 173 -95z m145 -94
c39 -27 72 -51 72 -54 0 -5 -149 93 -165 109 -15 15 10 0 93 -55z m103 -75
c13 -16 12 -17 -3 -4 -10 7 -18 15 -18 17 0 8 8 3 21 -13z m85 -65 c4 -7 -9 1
-29 16 -20 16 -37 30 -37 33 0 7 58 -36 66 -49z m119 -99 c17 -18 0 -6 -37 26
-38 32 -68 60 -68 63 0 7 75 -56 105 -89z m-4815 -32 c0 -1 -39 -41 -87 -87
-48 -47 -79 -74 -68 -60 17 22 146 149 153 150 1 0 2 -1 2 -3z m4901 -44 c13
-16 12 -17 -3 -4 -17 13 -22 21 -14 21 2 0 10 -8 17 -17z m103 -110 c65 -70
55 -68 -14 3 -30 31 -50 55 -45 53 6 -2 32 -28 59 -56z m-5203 -65 c-17 -24
-56 -70 -87 -103 l-57 -60 47 55 c26 30 63 76 82 103 44 58 56 63 15 5z m5285
-30 l29 -33 -32 29 c-18 17 -33 31 -33 33 0 8 8 1 36 -29z m49 -58 c10 -11 16
-20 13 -20 -3 0 -13 9 -23 20 -10 11 -16 20 -13 20 3 0 13 -9 23 -20z m46 -57
c13 -16 12 -17 -3 -4 -17 13 -22 21 -14 21 2 0 10 -8 17 -17z m-5521 -27 c0
-2 -8 -10 -17 -17 -16 -13 -17 -12 -4 4 13 16 21 21 21 13z m5577 -61 c6 -19
8 -33 3 -30 -4 3 -11 17 -15 32 -3 16 -14 37 -23 48 -17 20 -17 20 4 2 11 -9
26 -33 31 -52z m-5607 21 c0 -2 -8 -10 -17 -17 -16 -13 -17 -12 -4 4 13 16 21
21 21 13z m-71 -103 c-12 -21 -27 -42 -32 -48 -11 -11 9 29 31 63 24 37 25 25
1 -15z m5712 20 c13 -16 12 -17 -3 -4 -10 7 -18 15 -18 17 0 8 8 3 21 -13z
m52 -72 c27 -46 14 -38 -18 12 -16 23 -22 37 -14 30 8 -6 22 -25 32 -42z
m-5828 -61 c-14 -27 -28 -50 -30 -50 -3 0 6 23 20 50 14 28 28 50 30 50 3 0
-6 -22 -20 -50z m5910 -70 c9 -16 13 -30 11 -30 -3 0 -12 14 -21 30 -9 17 -13
30 -11 30 3 0 12 -13 21 -30z m45 -80 c11 -22 18 -40 15 -40 -2 0 -14 18 -25
40 -11 22 -18 40 -15 40 2 0 14 -18 25 -40z m-6069 -76 c-16 -33 -30 -56 -31
-52 0 11 53 118 58 114 2 -2 -10 -30 -27 -62z m6143 -70 c3 -8 2 -12 -4 -9 -6
3 -10 10 -10 16 0 14 7 11 14 -7z m-6215 -93 c-18 -39 -34 -70 -36 -68 -2 2
11 36 28 76 18 39 34 70 36 68 2 -2 -11 -36 -28 -76z m6250 14 c0 -5 -6 1 -14
15 -8 14 -14 30 -14 35 0 6 6 -1 14 -15 8 -14 14 -29 14 -35z m31 -70 c0 -5
-5 -3 -10 5 -5 8 -10 20 -10 25 0 6 5 3 10 -5 5 -8 10 -19 10 -25z m-6344 -82
c-8 -15 -15 -25 -16 -21 0 12 23 58 27 54 3 -2 -2 -17 -11 -33z m-25 -60 c-12
-20 -14 -14 -5 12 4 9 9 14 11 11 3 -2 0 -13 -6 -23z m6429 -8 c0 -5 -5 -3
-10 5 -5 8 -10 20 -10 25 0 6 5 3 10 -5 5 -8 10 -19 10 -25z m25 -46 c9 -17
15 -33 13 -35 -3 -2 -12 12 -21 31 -21 43 -13 47 8 4z m-6484 -16 c-12 -20
-14 -14 -5 12 4 9 9 14 11 11 3 -2 0 -13 -6 -23z m-20 -50 c-12 -20 -14 -14
-5 12 4 9 9 14 11 11 3 -2 0 -13 -6 -23z m6559 -47 c0 -12 -5 -7 -19 24 -11
24 -11 24 3 6 9 -11 16 -24 16 -30z m-6596 -51 c-25 -68 -44 -104 -29 -55 15
51 47 131 51 128 1 -2 -8 -35 -22 -73z m6620 -15 c5 -17 4 -20 -2 -10 -5 8
-13 26 -16 40 -5 17 -4 20 2 10 5 -8 13 -26 16 -40z m-6668 -116 c-8 -21 -15
-34 -15 -28 -1 15 20 76 25 71 2 -2 -2 -21 -10 -43z m6712 -29 c0 -16 -2 -15
-8 5 -11 34 -11 60 0 35 5 -11 8 -29 8 -40z m-6753 -111 c-28 -99 -38 -124
-30 -79 9 47 48 176 52 171 2 -2 -8 -43 -22 -92z m6762 54 c-3 -7 -5 -2 -5 12
0 14 2 19 5 13 2 -7 2 -19 0 -25z m10 -125 c-2 -21 -4 -4 -4 37 0 41 2 58 4
38 2 -21 2 -55 0 -75z m-6813 -87 c-3 -21 -8 -35 -11 -32 -2 2 -1 20 3 40 3
21 8 35 11 32 2 -2 1 -20 -3 -40z m6813 7 c-3 -10 -5 -4 -5 12 0 17 2 24 5 18
2 -7 2 -21 0 -30z m10 -55 c-3 -7 -5 -2 -5 12 0 14 2 19 5 13 2 -7 2 -19 0
-25z m-6840 -20 c-3 -8 -6 -5 -6 6 -1 11 2 17 5 13 3 -3 4 -12 1 -19z m6850
-45 c-3 -10 -5 -2 -5 17 0 19 2 27 5 18 2 -10 2 -26 0 -35z m-6860 -5 c-3 -7
-5 -2 -5 12 0 14 2 19 5 13 2 -7 2 -19 0 -25z m-10 -60 c-3 -7 -5 -2 -5 12 0
14 2 19 5 13 2 -7 2 -19 0 -25z m6880 -15 c-3 -10 -5 -2 -5 17 0 19 2 27 5 18
2 -10 2 -26 0 -35z m-6890 -50 c-3 -10 -5 -2 -5 17 0 19 2 27 5 18 2 -10 2
-26 0 -35z m6900 -35 c-2 -13 -4 -5 -4 17 -1 22 1 32 4 23 2 -10 2 -28 0 -40z
m-6910 -50 c-2 -13 -4 -5 -4 17 -1 22 1 32 4 23 2 -10 2 -28 0 -40z m6920 -40
c-2 -13 -4 -5 -4 17 -1 22 1 32 4 23 2 -10 2 -28 0 -40z m-6930 -105 c-2 -21
-4 -6 -4 32 0 39 2 55 4 38 2 -18 2 -50 0 -70z m6940 -25 c-2 -18 -4 -6 -4 27
0 33 2 48 4 33 2 -15 2 -42 0 -60z m-6950 -200 c-2 -29 -3 -6 -3 52 0 58 1 81
3 53 2 -29 2 -77 0 -105z m6960 -20 c-2 -18 -4 -4 -4 32 0 36 2 50 4 33 2 -18
2 -48 0 -65z m-6917 -246 c11 -20 19 -53 19 -72 -2 -30 -3 -31 -6 -7 -2 15 -8
25 -13 22 -5 -3 -11 3 -14 12 -11 36 -26 159 -24 208 0 38 3 28 10 -38 5 -53
17 -103 28 -125z m6927 161 c-3 -10 -5 -4 -5 12 0 17 2 24 5 18 2 -7 2 -21 0
-30z m-5 -100 c2 -34 0 -59 -4 -56 -5 2 -8 32 -8 65 0 78 9 71 12 -9z m331
-40 c-24 -2 -62 -2 -85 0 -24 2 -5 4 42 4 47 0 66 -2 43 -4z m-156 -9 c-3 -3
-12 -4 -19 -1 -8 3 -5 6 6 6 11 1 17 -2 13 -5z m-49 -11 c-10 -2 -26 -2 -35 0
-10 3 -2 5 17 5 19 0 27 -2 18 -5z m-73 -13 c-11 -5 -27 -9 -35 -9 -9 0 -8 4
5 9 11 5 27 9 35 9 9 0 8 -4 -5 -9z m405 0 c8 -5 11 -10 5 -10 -5 0 -17 5 -25
10 -8 5 -10 10 -5 10 6 0 17 -5 25 -10z m66 -41 c3 -6 -5 -3 -20 6 -14 10 -26
19 -26 22 0 7 39 -17 46 -28z m146 -158 c15 -25 28 -50 28 -55 0 -6 -13 12
-29 39 -16 28 -53 77 -81 110 l-52 60 53 -55 c29 -30 65 -75 81 -99z m-275 87
c28 -10 74 -37 102 -60 43 -35 56 -56 99 -152 27 -61 57 -131 66 -155 26 -68
86 -495 101 -721 10 -156 34 -380 49 -465 22 -120 30 -411 16 -530 -14 -117
-23 -133 -157 -271 -110 -113 -131 -122 -339 -132 -82 -4 -159 -6 -172 -4 -31
5 -89 64 -101 104 -5 18 -20 59 -32 91 -12 31 -19 60 -16 63 3 3 29 -2 57 -11
71 -24 131 -16 221 28 49 24 96 38 139 42 99 11 199 67 222 125 5 14 11 126
13 250 2 138 9 258 18 310 35 200 32 358 -18 805 -8 72 -17 156 -20 188 -11
100 -88 289 -137 334 -32 30 -107 63 -144 63 -40 0 -128 -63 -175 -126 -53
-72 -147 -265 -181 -372 -16 -52 -47 -130 -69 -175 -84 -172 -55 -291 87 -363
73 -37 134 -105 134 -149 0 -39 -32 -113 -76 -177 -56 -82 -67 -147 -50 -289
7 -52 5 -77 -8 -117 -29 -88 -56 -79 -56 19 0 63 -21 162 -78 374 -46 168 -60
292 -42 370 22 97 23 195 1 345 -20 136 -20 152 -7 261 19 150 48 248 98 325
68 107 165 174 279 193 63 10 105 5 176 -21z m-7290 -40 c-2 -13 -4 -5 -4 17
-1 22 1 32 4 23 2 -10 2 -28 0 -40z m10 -75 c-3 -10 -5 -2 -5 17 0 19 2 27 5
18 2 -10 2 -26 0 -35z m10 -60 c-3 -10 -5 -4 -5 12 0 17 2 24 5 18 2 -7 2 -21
0 -30z m7607 -63 c5 -17 4 -20 -2 -10 -5 8 -13 26 -16 40 -5 17 -4 20 2 10 5
-8 13 -26 16 -40z m-7567 -144 c-4 -12 -38 151 -36 174 1 8 10 -25 20 -75 11
-49 18 -94 16 -99z m7593 79 c0 -5 -5 -3 -10 5 -5 8 -10 20 -10 25 0 6 5 3 10
-5 5 -8 10 -19 10 -25z m24 -65 c5 -17 4 -20 -2 -10 -5 8 -13 26 -16 40 -5 17
-4 20 2 10 5 -8 13 -26 16 -40z m-7607 -52 c-3 -8 -6 -5 -6 6 -1 11 2 17 5 13
3 -3 4 -12 1 -19z m7620 0 c-3 -8 -6 -5 -6 6 -1 11 2 17 5 13 3 -3 4 -12 1
-19z m-380 -32 c20 -17 35 -46 50 -93 94 -305 136 -702 98 -933 -11 -69 -17
-179 -19 -320 l-3 -215 -37 -21 c-23 -13 -65 -24 -109 -28 -56 -5 -91 -16
-155 -48 -74 -37 -87 -40 -120 -32 -36 9 -37 10 -40 61 l-3 52 73 55 c40 30
96 64 123 76 63 27 107 69 151 143 43 74 59 138 80 320 13 121 15 175 7 292
-9 127 -13 148 -37 189 -51 88 -132 126 -266 126 -43 0 -91 3 -107 6 l-30 6
54 101 c30 56 61 116 68 133 7 16 40 58 73 92 69 71 101 79 149 38z m-7230 -8
c-3 -8 -6 -5 -6 6 -1 11 2 17 5 13 3 -3 4 -12 1 -19z m7620 -70 c-2 -18 -4 -4
-4 32 0 36 2 50 4 33 2 -18 2 -48 0 -65z m-7598 2 c0 -9 -4 -8 -9 5 -5 11 -9
27 -9 35 0 9 4 8 9 -5 5 -11 9 -27 9 -35z m8 -67 c-3 -10 -5 -2 -5 17 0 19 2
27 5 18 2 -10 2 -26 0 -35z m7600 -25 c-2 -13 -4 -5 -4 17 -1 22 1 32 4 23 2
-10 2 -28 0 -40z m-7590 -30 c-3 -7 -5 -2 -5 12 0 14 2 19 5 13 2 -7 2 -19 0
-25z m7600 -50 c-2 -13 -4 -5 -4 17 -1 22 1 32 4 23 2 -10 2 -28 0 -40z
m-7579 -28 c0 -9 -3 -7 -8 5 -5 11 -8 29 -8 40 0 16 2 15 8 -5 4 -14 8 -32 8
-40z m7600 -120 c-1 -29 -2 -26 -8 15 -11 69 -10 126 1 65 4 -25 7 -61 7 -80z
m-7591 28 c-2 -13 -4 -3 -4 22 0 25 2 35 4 23 2 -13 2 -33 0 -45z m10 -115
c-2 -16 -4 -3 -4 27 0 30 2 43 4 28 2 -16 2 -40 0 -55z m7584 -128 l-11 -40 5
40 c3 22 6 69 7 105 l2 65 3 -65 c2 -36 -1 -83 -6 -105z m-7694 88 c-20 -2
-52 -2 -70 0 -17 2 0 4 38 4 39 0 53 -2 32 -4z m106 0 c-7 -2 -21 -2 -30 0
-10 3 -4 5 12 5 17 0 24 -2 18 -5z m-226 -9 c-3 -3 -12 -4 -19 -1 -8 3 -5 6 6
6 11 1 17 -2 13 -5z m-38 -7 c-16 -12 -79 -45 -79 -42 0 7 63 45 74 45 5 0 7
-1 5 -3z m-115 -80 c-16 -18 -37 -44 -47 -57 -18 -25 -18 -25 -1 5 16 29 64
85 72 85 2 0 -9 -15 -24 -33z m311 5 c47 -16 51 -20 77 -83 41 -100 52 -183
43 -332 -4 -74 -11 -127 -17 -125 -5 2 -26 46 -47 98 -35 84 -46 101 -109 162
-108 102 -181 130 -251 94 -43 -23 -51 -54 -51 -201 l0 -134 43 -49 c23 -27
50 -64 59 -81 12 -21 24 -31 35 -29 23 5 19 38 -13 101 -21 43 -24 62 -24 168
0 111 1 119 20 119 33 0 161 -171 180 -239 5 -20 24 -103 42 -186 l33 -150 0
-395 0 -395 24 -45 c13 -25 40 -66 60 -91 32 -40 39 -60 55 -145 20 -115 70
-308 97 -378 30 -78 21 -106 -33 -106 -41 0 -78 22 -125 73 -55 59 -58 66 -88
198 -22 94 -28 153 -36 334 -18 456 -45 619 -130 788 -23 45 -78 161 -121 257
-87 192 -98 239 -98 430 1 81 5 106 29 168 37 94 88 156 143 175 57 20 142 20
203 -1z m7673 -172 c-1 -28 -2 -25 -8 15 -5 28 -8 66 -8 85 1 28 2 25 8 -15 5
-27 8 -66 8 -85z m-8057 53 c-12 -20 -14 -14 -5 12 4 9 9 14 11 11 3 -2 0 -13
-6 -23z m-34 -105 c-3 -8 -6 -5 -6 6 -1 11 2 17 5 13 3 -3 4 -12 1 -19z m8100
-60 c-2 -13 -4 -3 -4 22 0 25 2 35 4 23 2 -13 2 -33 0 -45z m-8110 -55 c-2
-16 -4 -3 -4 27 0 30 2 43 4 28 2 -16 2 -40 0 -55z m8131 -83 c0 -16 -3 -10
-9 15 -4 22 -8 54 -7 70 0 22 3 19 9 -15 4 -25 7 -56 7 -70z m-8141 -92 c-2
-24 -4 -7 -4 37 0 44 2 63 4 43 2 -21 2 -57 0 -80z m8150 10 c-2 -13 -4 -5 -4
17 -1 22 1 32 4 23 2 -10 2 -28 0 -40z m10 -185 c-2 -32 -3 -8 -3 52 0 61 1
87 3 58 2 -29 2 -78 0 -110z m-8150 75 c-3 -8 -6 -5 -6 6 -1 11 2 17 5 13 3
-3 4 -12 1 -19z m72 -173 c0 -5 -8 6 -19 25 -11 19 -19 40 -19 45 0 6 8 -6 19
-25 11 -19 19 -39 19 -45z m8088 -162 c-2 -37 -3 -9 -3 62 0 72 1 102 3 68 2
-34 2 -93 0 -130z m-7958 -118 c0 -5 -22 33 -49 85 -27 52 -49 100 -49 105 0
6 22 -33 49 -85 27 -52 49 -99 49 -105z m7948 -2 c-3 -10 -5 -2 -5 17 0 19 2
27 5 18 2 -10 2 -26 0 -35z m-7565 -116 c20 -158 22 -327 4 -420 -7 -37 -16
-70 -19 -73 -14 -15 -37 8 -48 48 -25 90 10 612 39 583 4 -3 15 -66 24 -138z
m7547 25 c-25 -77 -60 -130 -151 -224 -110 -114 -174 -150 -303 -168 -44 -6
-104 -16 -134 -21 -30 -5 -67 -9 -82 -9 -23 0 -30 -5 -35 -27 -10 -46 -12 -49
-13 -17 -1 17 5 36 12 42 7 6 55 16 107 22 157 19 248 39 302 66 79 40 211
182 259 278 21 44 40 91 40 105 1 18 3 20 6 8 2 -9 -1 -34 -8 -55z m-7875 -32
c3 -14 -5 -1 -19 29 -14 29 -25 56 -25 60 1 11 37 -63 44 -89z m34 -115 c0
-16 -2 -15 -8 5 -11 34 -11 60 0 35 5 -11 8 -29 8 -40z m9 -57 c-3 -7 -5 -2
-5 12 0 14 2 19 5 13 2 -7 2 -19 0 -25z m10 -65 c-3 -10 -5 -4 -5 12 0 17 2
24 5 18 2 -7 2 -21 0 -30z m10 -115 c-2 -13 -4 -3 -4 22 0 25 2 35 4 23 2 -13
2 -33 0 -45z m0 -155 c-2 -16 -4 -3 -4 27 0 30 2 43 4 28 2 -16 2 -40 0 -55z
m7108 -31 c-4 -26 -10 -41 -12 -34 -3 7 -2 34 2 60 4 26 10 41 12 34 3 -7 2
-34 -2 -60z m-4 -312 c-7 -102 -17 -228 -22 -280 -5 -52 -16 -165 -25 -250
-20 -215 -52 -462 -68 -529 -24 -98 -118 -415 -127 -431 -12 -18 -15 -32 47
190 78 277 82 293 98 421 36 279 95 912 97 1044 0 28 3 43 6 35 4 -8 1 -98 -6
-200z m-7104 53 c-2 -16 -4 -3 -4 27 0 30 2 43 4 28 2 -16 2 -40 0 -55z m10
-90 c-3 -10 -5 -2 -5 17 0 19 2 27 5 18 2 -10 2 -26 0 -35z m10 -55 c-3 -7 -5
-2 -5 12 0 14 2 19 5 13 2 -7 2 -19 0 -25z m10 -40 c-3 -8 -6 -5 -6 6 -1 11 2
17 5 13 3 -3 4 -12 1 -19z m27 -83 c4 -20 3 -25 -3 -15 -5 8 -11 31 -15 50 -7
41 7 13 18 -35z m30 -72 c9 -18 14 -33 12 -33 -6 0 -36 55 -36 66 0 11 5 3 24
-33z m37 -60 c13 -16 12 -17 -3 -4 -10 7 -18 15 -18 17 0 8 8 3 21 -13z m99
-110 c0 -8 -9 0 -50 45 l-45 47 48 -45 c26 -24 47 -45 47 -47z m184 -118 c3
-9 6 -24 5 -33 0 -9 -5 -3 -10 14 -6 22 -20 36 -49 49 -23 10 -43 22 -46 27
-4 5 16 -2 44 -16 27 -14 52 -32 56 -41z m24 -135 c0 -22 -1 -22 -8 5 -4 17
-8 41 -8 55 0 22 1 22 8 -5 4 -16 8 -41 8 -55z m9 -62 c-3 -7 -5 -2 -5 12 0
14 2 19 5 13 2 -7 2 -19 0 -25z m10 -50 c-3 -7 -5 -2 -5 12 0 14 2 19 5 13 2
-7 2 -19 0 -25z m3105 1 c28 -14 37 -24 30 -31 -9 -9 -132 7 -222 29 l-25 6
25 7 c53 16 149 11 192 -11z m-3095 -41 c-3 -8 -6 -5 -6 6 -1 11 2 17 5 13 3
-3 4 -12 1 -19z m10 -50 c-3 -7 -5 -2 -5 12 0 14 2 19 5 13 2 -7 2 -19 0 -25z
m4186 -2 c31 -19 77 -51 102 -71 l45 -37 0 -107 c0 -133 -19 -258 -65 -431
-41 -157 -102 -402 -110 -444 -12 -60 -217 -241 -384 -340 -52 -31 -100 -56
-107 -56 -6 0 -52 25 -100 56 l-89 55 -11 77 c-6 42 -15 93 -18 112 -7 34 -6
36 66 86 117 81 305 259 333 315 30 59 31 78 5 122 -20 33 -64 59 -140 82 -59
19 -166 31 -199 24 -177 -38 -456 -84 -641 -104 -260 -28 -312 -36 -359 -52
-25 -8 -68 -15 -95 -14 -61 1 -76 -11 -76 -59 0 -68 135 -234 255 -315 46 -30
292 -158 376 -195 33 -15 34 -17 37 -78 l3 -63 -38 -15 c-21 -9 -106 -47 -188
-85 -83 -38 -154 -69 -159 -69 -5 0 -36 27 -70 59 -33 33 -119 105 -191 161
-71 56 -221 179 -332 273 l-203 172 0 66 c0 57 31 333 45 395 4 19 14 22 77
28 40 4 134 14 208 23 119 15 138 20 158 42 l22 24 88 -16 c48 -10 103 -17
123 -17 20 0 71 -9 114 -20 95 -24 239 -27 290 -6 60 25 44 41 -65 66 -30 7
-75 23 -100 35 -25 12 -70 30 -100 40 -48 15 -264 125 -258 130 2 2 44 24 93
50 50 26 97 54 106 61 24 21 129 17 264 -11 164 -34 221 -32 432 15 182 40
342 58 407 46 l37 -7 -49 -44 c-27 -25 -52 -54 -55 -65 -4 -17 0 -20 26 -20
18 0 46 9 62 20 17 11 57 29 90 39 33 11 103 38 155 60 52 22 102 41 111 41 8
0 41 -15 72 -34z m-4176 -38 c-3 -8 -6 -5 -6 6 -1 11 2 17 5 13 3 -3 4 -12 1
-19z m32 -128 c0 -8 -7 8 -15 35 -7 28 -13 57 -13 65 0 8 7 -7 15 -35 7 -27
13 -57 13 -65z m21 -75 c0 -5 -5 -3 -10 5 -5 8 -10 20 -10 25 0 6 5 3 10 -5 5
-8 10 -19 10 -25z m120 -242 c0 -9 -79 129 -97 170 -7 15 -13 31 -13 35 0 9
110 -195 110 -205z m18 -38 c-3 -3 -9 2 -12 12 -6 14 -5 15 5 6 7 -7 10 -15 7
-18z m31 -70 c0 -5 -6 1 -14 15 -8 14 -14 30 -14 35 0 6 6 -1 14 -15 8 -14 14
-29 14 -35z m6107 -99 c-26 -48 -49 -86 -52 -86 -2 0 17 40 43 89 26 49 50 88
52 86 2 -2 -18 -42 -43 -89z m-6086 49 c0 -5 -5 -3 -10 5 -5 8 -10 20 -10 25
0 6 5 3 10 -5 5 -8 10 -19 10 -25z m20 -50 c0 -5 -5 -3 -10 5 -5 8 -10 20 -10
25 0 6 5 3 10 -5 5 -8 10 -19 10 -25z m20 -50 c0 -5 -5 -3 -10 5 -5 8 -10 20
-10 25 0 6 5 3 10 -5 5 -8 10 -19 10 -25z m30 -70 c0 -5 -5 -3 -10 5 -5 8 -10
20 -10 25 0 6 5 3 10 -5 5 -8 10 -19 10 -25z m5950 5 c-6 -11 -13 -20 -16 -20
-2 0 0 9 6 20 6 11 13 20 16 20 2 0 0 -9 -6 -20z m-5930 -55 c0 -5 -5 -3 -10
5 -5 8 -10 20 -10 25 0 6 5 3 10 -5 5 -8 10 -19 10 -25z m5903 10 c-3 -9 -8
-14 -10 -11 -3 3 -2 9 2 15 9 16 15 13 8 -4z m-5883 -60 c0 -5 -5 -3 -10 5 -5
8 -10 20 -10 25 0 6 5 3 10 -5 5 -8 10 -19 10 -25z m5867 -207 c-1 -46 -3 -9
-3 82 0 91 2 128 3 83 2 -46 2 -120 0 -165z m-5810 65 c-5 -4 -57 114 -56 125
0 4 14 -22 30 -57 16 -35 28 -66 26 -68z m47 -90 c9 -18 14 -33 12 -33 -6 0
-36 55 -36 66 0 11 5 3 24 -33z m67 -115 c68 -116 156 -245 241 -356 79 -102
80 -104 69 -140 -10 -35 -10 -35 -6 -4 4 28 -5 45 -73 135 -115 151 -298 437
-279 437 3 0 24 -33 48 -72z m5686 -150 c-2 -29 -3 -6 -3 52 0 58 1 81 3 53 2
-29 2 -77 0 -105z m10 -305 c-2 -32 -3 -6 -3 57 0 63 1 89 3 58 2 -32 2 -84 0
-115z m-5400 -145 c-2 -13 -4 -3 -4 22 0 25 2 35 4 23 2 -13 2 -33 0 -45z
m5410 -60 c-2 -24 -4 -7 -4 37 0 44 2 63 4 43 2 -21 2 -57 0 -80z m-5410 -100
c-2 -13 -4 -3 -4 22 0 25 2 35 4 23 2 -13 2 -33 0 -45z m5443 -97 c11 -9 22
-32 25 -51 l5 -35 -10 31 c-5 17 -19 39 -30 49 -17 15 -20 29 -18 84 l2 66 3
-64 c3 -48 9 -68 23 -80z m-5427 4 c4 -39 3 -50 -2 -30 -9 31 -14 102 -7 94 2
-2 6 -31 9 -64z m14 -102 c-3 -10 -5 -4 -5 12 0 17 2 24 5 18 2 -7 2 -21 0
-30z m5450 -35 c-3 -7 -5 -2 -5 12 0 14 2 19 5 13 2 -7 2 -19 0 -25z m-5440
-25 c-3 -10 -5 -4 -5 12 0 17 2 24 5 18 2 -7 2 -21 0 -30z m5450 -25 c-3 -7
-5 -2 -5 12 0 14 2 19 5 13 2 -7 2 -19 0 -25z m-5440 -35 c-3 -10 -5 -4 -5 12
0 17 2 24 5 18 2 -7 2 -21 0 -30z m5450 -5 c-3 -8 -6 -5 -6 6 -1 11 2 17 5 13
3 -3 4 -12 1 -19z m-5440 -50 c-3 -7 -5 -2 -5 12 0 14 2 19 5 13 2 -7 2 -19 0
-25z m5461 -33 c0 -16 -2 -15 -8 5 -4 14 -8 34 -8 45 0 16 2 15 8 -5 4 -14 8
-34 8 -45z m-5451 -22 c-3 -10 -5 -4 -5 12 0 17 2 24 5 18 2 -7 2 -21 0 -30z
m5460 -25 c-3 -8 -6 -5 -6 6 -1 11 2 17 5 13 3 -3 4 -12 1 -19z m-5450 -35
c-3 -10 -5 -4 -5 12 0 17 2 24 5 18 2 -7 2 -21 0 -30z m5460 -5 c-3 -8 -6 -5
-6 6 -1 11 2 17 5 13 3 -3 4 -12 1 -19z m-5447 -31 c0 -7 -7 -22 -15 -33 -13
-17 -13 -16 -3 14 13 34 18 40 18 19z m5457 -9 c-3 -8 -6 -5 -6 6 -1 11 2 17
5 13 3 -3 4 -12 1 -19z m10 -40 c-3 -8 -6 -5 -6 6 -1 11 2 17 5 13 3 -3 4 -12
1 -19z m10 -40 c-3 -8 -6 -5 -6 6 -1 11 2 17 5 13 3 -3 4 -12 1 -19z m-5542
-25 c-10 -16 -26 -38 -37 -49 -22 -24 -108 -88 -108 -80 0 3 24 23 54 45 29
22 64 56 76 75 12 20 24 36 27 36 3 0 -3 -12 -12 -27z m5552 -15 c-3 -8 -6 -5
-6 6 -1 11 2 17 5 13 3 -3 4 -12 1 -19z m77 -167 l31 -35 -32 25 c-29 22 -54
67 -52 93 0 6 5 -2 11 -19 6 -16 25 -45 42 -64z m-5809 23 c-33 -28 -65 -47
-65 -40 0 6 82 65 90 65 3 0 -8 -11 -25 -25z m-100 -69 c-16 -14 -48 -30 -70
-35 -22 -5 -53 -15 -70 -21 -16 -6 -61 -19 -100 -29 -38 -10 -78 -21 -87 -25
-10 -4 -18 -5 -18 -2 0 3 26 14 58 23 31 9 90 27 130 40 40 13 80 24 90 24 10
0 33 11 52 25 45 31 53 31 15 0z m6054 -72 c2 -2 0 -3 -5 -3 -5 0 -31 21 -59
46 l-50 46 55 -43 c30 -24 57 -44 59 -46z m156 -116 c17 -17 -15 3 -82 50 -35
24 -63 46 -63 49 0 6 127 -81 145 -99z m-6580 64 c-11 -5 -36 -11 -55 -14 -35
-6 -34 -6 5 8 43 14 84 19 50 6z m-98 -27 c-3 -3 -12 -4 -19 -1 -8 3 -5 6 6 6
11 1 17 -2 13 -5z m-52 -14 c-11 -5 -27 -9 -35 -9 -9 0 -8 4 5 9 11 5 27 9 35
9 9 0 8 -4 -5 -9z m-94 -26 c-25 -8 -47 -12 -49 -9 -5 5 56 23 78 23 8 0 -5
-6 -29 -14z m6874 -14 c13 -6 15 -9 5 -9 -8 0 -22 4 -30 9 -18 12 -2 12 25 0z
m-6938 -6 c-3 -3 -12 -4 -19 -1 -8 3 -5 6 6 6 11 1 17 -2 13 -5z m6996 -1 c-7
-2 -19 -2 -25 0 -7 3 -2 5 12 5 14 0 19 -2 13 -5z m95 -10 c-10 -2 -28 -2 -40
0 -13 2 -5 4 17 4 22 1 32 -1 23 -4z m65 -10 c-7 -2 -21 -2 -30 0 -10 3 -4 5
12 5 17 0 24 -2 18 -5z m60 -10 c-7 -2 -21 -2 -30 0 -10 3 -4 5 12 5 17 0 24
-2 18 -5z m44 -9 c-3 -3 -12 -4 -19 -1 -8 3 -5 6 6 6 11 1 17 -2 13 -5z
m-7427 -13 c-8 -5 -26 -11 -40 -15 -21 -5 -20 -3 5 9 32 15 60 20 35 6z m7467
3 c-3 -3 -12 -4 -19 -1 -8 3 -5 6 6 6 11 1 17 -2 13 -5z m46 -11 c-7 -2 -19
-2 -25 0 -7 3 -2 5 12 5 14 0 19 -2 13 -5z m44 -9 c-3 -3 -12 -4 -19 -1 -8 3
-5 6 6 6 11 1 17 -2 13 -5z m-7637 -14 c-8 -5 -19 -10 -25 -10 -5 0 -3 5 5 10
8 5 20 10 25 10 6 0 3 -5 -5 -10z m7677 4 c-3 -3 -12 -4 -19 -1 -8 3 -5 6 6 6
11 1 17 -2 13 -5z m73 -14 c20 -6 21 -8 5 -8 -11 0 -31 4 -45 8 -20 6 -21 8
-5 8 11 0 31 -4 45 -8z m-7820 -18 c-19 -9 -79 -38 -132 -64 -54 -27 -98 -46
-98 -43 0 8 242 125 255 124 6 0 -6 -8 -25 -17z m7930 -13 c18 -11 -34 -1 -65
13 -13 5 -9 6 15 2 19 -4 42 -10 50 -15z m116 -45 c30 -13 54 -26 54 -29 0 -6
-28 5 -100 39 -67 32 -30 24 46 -10z m-8291 -62 c-17 -15 -105 -63 -105 -58 0
3 24 19 53 36 52 30 69 37 52 22z m8471 -28 c18 -14 18 -14 -6 -3 -31 14 -36
19 -24 19 6 0 19 -7 30 -16z m60 -30 c18 -14 18 -14 -6 -3 -31 14 -36 19 -24
19 6 0 19 -7 30 -16z m-8646 -9 c0 -2 -10 -9 -22 -15 -22 -11 -22 -10 -4 4 21
17 26 19 26 11z m8770 -60 c0 -3 -18 4 -40 15 -22 11 -40 23 -40 25 0 3 18 -4
40 -15 22 -11 40 -23 40 -25z m-8850 11 c0 -2 -12 -11 -27 -20 l-28 -17 24 20
c23 21 31 25 31 17z m9040 -118 l25 -20 -25 14 c-14 8 -60 34 -102 57 -43 24
-78 45 -78 48 0 7 153 -76 180 -99z m-9100 78 c0 -2 -28 -24 -62 -49 -59 -41
-126 -72 -135 -63 -3 2 13 10 34 16 21 7 65 32 98 56 62 45 65 47 65 40z
m8836 -84 c-8 -24 -62 -40 -78 -24 -8 8 -3 13 16 18 15 3 31 15 37 26 14 26
34 9 25 -20z m334 -38 c0 -2 -9 0 -20 6 -11 6 -20 13 -20 16 0 2 9 0 20 -6 11
-6 20 -13 20 -16z m-9395 -4 c-27 -12 -43 -12 -25 0 8 5 22 9 30 9 10 0 8 -3
-5 -9z m9115 -17 c32 -29 49 -79 50 -140 0 -18 -4 -33 -10 -33 -5 0 -10 19
-11 43 0 61 -20 109 -51 127 -21 11 -30 12 -39 3 -9 -9 -4 -19 22 -44 32 -29
32 -32 15 -45 -22 -15 -47 -6 -69 27 -21 29 -32 6 -17 -32 7 -16 11 -32 8 -34
-2 -2 -22 2 -43 10 -24 8 -44 10 -49 4 -13 -12 19 -46 50 -53 25 -7 24 -26 -1
-26 -22 0 -75 50 -75 71 0 23 30 40 58 32 18 -4 22 -1 22 17 0 26 68 99 92
100 10 0 31 -12 48 -27z m345 -18 l20 -16 -20 10 c-11 5 -29 17 -40 26 l-20
16 20 -10 c11 -5 29 -17 40 -26z m-9545 5 c-8 -5 -19 -10 -25 -10 -5 0 -3 5 5
10 8 5 20 10 25 10 6 0 3 -5 -5 -10z m-80 -30 c-8 -5 -19 -10 -25 -10 -5 0 -3
5 5 10 8 5 20 10 25 10 6 0 3 -5 -5 -10z m9690 -16 c0 -2 -9 0 -20 6 -11 6
-20 13 -20 16 0 2 9 0 20 -6 11 -6 20 -13 20 -16z m-9770 -14 c-8 -5 -19 -10
-25 -10 -5 0 -3 5 5 10 8 5 20 10 25 10 6 0 3 -5 -5 -10z m9880 -45 c0 -3 -18
4 -40 15 -22 11 -40 23 -40 25 0 3 18 -4 40 -15 22 -11 40 -23 40 -25z m-9940
20 c-14 -8 -29 -14 -35 -14 -5 0 1 6 15 14 14 8 30 14 35 14 6 0 -1 -6 -15
-14z m-90 -40 c-14 -8 -29 -14 -35 -14 -5 0 1 6 15 14 14 8 30 14 35 14 6 0
-1 -6 -15 -14z m9230 -5 c35 -18 56 -130 25 -130 -11 0 -15 12 -15 50 0 56
-17 73 -52 51 -27 -17 -35 -5 -13 19 20 23 29 24 55 10z m1050 -111 c14 -11 0
-6 -30 11 -30 17 -85 47 -122 66 -38 19 -68 37 -68 40 0 8 191 -93 220 -117z
m-10370 81 c-8 -5 -19 -10 -25 -10 -5 0 -3 5 5 10 8 5 20 10 25 10 6 0 3 -5
-5 -10z m9260 -66 c31 -28 40 -44 40 -68 0 -54 -43 -74 -82 -39 -30 27 -20
108 12 88 6 -4 6 -15 -1 -32 -7 -20 -6 -30 5 -41 20 -20 46 -8 46 22 0 31 -61
86 -96 86 -37 0 -40 -26 -9 -88 32 -63 26 -88 -20 -85 -30 2 -75 28 -75 43 0
16 19 12 50 -12 47 -34 58 -12 26 50 -40 80 -32 112 31 112 24 0 44 -10 73
-36z m-9390 16 c-8 -5 -19 -10 -25 -10 -5 0 -3 5 5 10 8 5 20 10 25 10 6 0 3
-5 -5 -10z m-70 -30 c-19 -11 -39 -19 -45 -19 -5 0 6 8 25 19 19 11 40 19 45
19 6 0 -6 -8 -25 -19z m-80 -35 c0 -2 -24 -17 -52 -31 -58 -29 -58 -23 0 12
38 23 52 28 52 19z m10800 -57 l25 -20 -29 17 c-16 10 -44 26 -63 37 -18 11
-33 22 -33 25 0 7 71 -35 100 -59z m-655 12 c0 -22 -29 -18 -33 3 -3 14 1 18
15 15 10 -2 18 -10 18 -18z m-85 0 c28 -18 -2 -31 -43 -18 -85 26 -267 -51
-362 -154 -73 -78 -98 -134 -98 -216 0 -42 -3 -62 -11 -59 -18 6 -19 58 -1
125 39 142 184 267 368 317 61 16 126 19 147 5z m-10175 -18 c-22 -19 -88 -55
-81 -44 4 7 24 21 44 32 41 21 51 24 37 12z m9444 -45 c89 -117 120 -236 84
-318 -67 -152 -216 -205 -407 -145 -47 14 -88 31 -92 37 -13 21 7 22 44 2 136
-76 293 -64 382 29 69 72 86 148 54 241 -22 65 -30 65 -26 -2 3 -45 -1 -62
-17 -82 -33 -43 -82 -60 -163 -58 -63 2 -74 -1 -90 -21 -10 -12 -18 -33 -18
-46 0 -13 -4 -24 -10 -24 -18 0 -11 57 11 84 19 25 25 26 111 26 89 0 90 0
124 34 29 29 34 41 34 83 0 48 -44 162 -69 177 -14 9 -15 36 -1 36 5 0 27 -24
49 -53z m1541 7 c0 -2 -9 0 -20 6 -11 6 -20 13 -20 16 0 2 9 0 20 -6 11 -6 20
-13 20 -16z m83 -53 c7 -8 -7 -2 -30 14 -24 15 -43 30 -43 32 0 7 61 -31 73
-46z m-11193 15 c0 -2 -12 -11 -27 -20 l-28 -17 24 20 c23 21 31 25 31 17z
m11283 -75 c7 -8 -7 -2 -30 14 -24 15 -43 30 -43 32 0 7 61 -31 73 -46z
m-11347 31 c-2 -4 -26 -23 -53 -41 -55 -39 -47 -27 12 18 42 32 49 36 41 23z
m-106 -77 c0 -2 -18 -14 -40 -25 -22 -11 -40 -18 -40 -15 0 2 17 13 38 24 42
23 42 23 42 16z m11590 -51 c0 -3 -13 4 -30 16 -16 12 -30 24 -30 26 0 3 14
-4 30 -16 17 -12 30 -24 30 -26z m-11700 -9 c0 -3 -51 -30 -112 -61 -62 -31
-108 -52 -103 -46 8 8 204 111 213 112 1 0 2 -2 2 -5z m-250 -130 c0 -3 -36
-23 -80 -45 -44 -22 -80 -38 -80 -35 0 4 146 82 158 85 1 0 2 -2 2 -5z"/>
<path d="M7306 8619 c-173 -23 -292 -45 -347 -64 -23 -8 -55 -15 -71 -15 -44
0 -97 -32 -159 -97 -68 -71 -93 -113 -130 -223 -15 -47 -44 -123 -63 -170 -45
-108 -50 -146 -38 -260 9 -82 13 -95 38 -120 16 -15 37 -40 48 -55 35 -51 74
-60 249 -58 166 2 319 16 390 37 35 10 42 16 42 36 0 23 -5 26 -70 35 -55 8
-80 18 -117 45 -55 40 -55 46 -7 144 29 60 64 100 79 91 4 -2 10 -17 13 -32 6
-26 63 -110 109 -160 35 -38 102 -63 168 -63 71 0 112 15 164 60 49 43 75 97
90 184 l11 71 71 14 c93 19 120 12 128 -34 5 -27 2 -44 -13 -69 -25 -39 -26
-53 -7 -72 25 -24 57 -16 96 25 36 37 39 39 126 46 126 10 275 55 314 93 17
17 40 32 52 34 29 4 35 34 13 58 -30 33 -134 89 -213 115 -118 39 -299 72
-487 90 -93 9 -190 18 -215 22 l-45 6 30 13 c21 8 121 15 313 20 229 6 289 10
315 23 80 40 22 128 -108 165 -27 8 -132 31 -233 50 -215 42 -316 45 -536 15z
m138 -645 c9 -8 16 -24 16 -34 0 -10 -7 -26 -16 -34 -8 -9 -24 -16 -34 -16
-10 0 -26 7 -34 16 -9 8 -16 24 -16 34 0 10 7 26 16 34 8 9 24 16 34 16 10 0
26 -7 34 -16z m134 4 c32 -32 -5 -92 -49 -81 -29 8 -44 45 -30 72 13 23 59 29
79 9z"/>
<path d="M4380 8239 c-30 -5 -122 -13 -205 -17 -182 -11 -286 -42 -397 -119
-82 -56 -101 -77 -124 -141 -9 -26 -27 -69 -41 -95 -45 -88 -40 -236 8 -245 9
-2 40 16 68 40 112 93 185 148 194 148 5 0 45 16 90 36 l82 36 110 -12 c261
-29 351 -46 387 -74 19 -14 49 -31 67 -37 24 -8 30 -14 22 -22 -23 -23 -206
-77 -391 -117 -118 -25 -198 -61 -286 -130 -33 -26 -75 -55 -92 -64 -51 -27
-102 -83 -102 -114 0 -15 4 -33 8 -40 11 -16 113 -52 150 -52 16 0 64 -9 108
-20 43 -12 89 -18 102 -15 13 3 58 -5 100 -19 89 -28 295 -68 465 -91 98 -13
148 -14 289 -6 159 10 177 13 291 52 151 51 180 66 238 120 40 37 51 57 73
128 23 73 26 101 27 220 0 150 -19 248 -65 338 -21 42 -38 57 -109 101 -115
71 -200 108 -278 122 -35 6 -121 25 -191 42 -173 42 -483 66 -598 47z m805
-660 c115 -36 181 -67 169 -79 -5 -5 -45 -23 -89 -40 -144 -57 -230 -117 -223
-156 2 -13 -16 -26 -82 -54 l-85 -36 -125 8 c-184 11 -279 36 -348 90 -46 36
-56 49 -54 69 6 39 53 99 107 135 l50 34 12 -67 c24 -128 105 -202 233 -211
61 -4 76 -1 124 22 118 58 166 171 129 305 -6 23 -5 24 38 17 24 -3 89 -20
144 -37z m-227 -25 c24 -17 29 -53 10 -72 -19 -19 -66 -15 -78 7 -14 28 -13
38 10 61 24 24 29 24 58 4z m-117 -14 c22 -12 26 -59 7 -78 -19 -19 -55 -14
-72 10 -20 29 -20 34 4 58 23 23 33 24 61 10z"/>
<path d="M6570 5968 c-84 -42 -162 -141 -146 -184 5 -13 14 -15 44 -9 20 4 44
13 53 21 8 8 23 14 32 14 9 0 36 5 60 12 35 9 62 8 141 -5 60 -10 105 -13 119
-8 64 25 82 105 33 147 -24 21 -37 24 -109 24 -45 0 -104 3 -132 6 -40 4 -59
1 -95 -18z"/>
<path d="M11335 970 c3 -5 11 -10 16 -10 6 0 7 5 4 10 -3 6 -11 10 -16 10 -6
0 -7 -4 -4 -10z"/>
</g>
</svg>
